<svg width="134" height="26" viewBox="0 0 134 26" fill="none" xmlns="http://www.w3.org/2000/svg">
<path d="M91.9823 22.0141C90.6855 22.0141 89.4083 21.6297 88.5163 20.7596L89.2664 19.8086C90.1175 20.5168 91.0297 20.8001 91.9621 20.8001C93.4417 20.8001 94.7391 19.9503 94.7391 18.2912V16.7534C94.2323 17.6842 93.1782 18.3519 91.9016 18.3519C89.6314 18.3519 88.0302 16.632 88.0302 13.9814C88.0302 11.5939 89.5703 9.48962 91.9419 9.48962C94.2323 9.48962 94.8204 11.0071 94.8204 11.0071V9.48962C95.5297 9.48962 96.0971 10.0561 96.0971 10.7643V11.2094V18.0483C96.0769 20.7799 94.2323 22.0141 91.9823 22.0141ZM92.0636 10.7643C90.3407 10.7643 89.3881 12.2818 89.3881 13.9207C89.3881 15.7822 90.3608 17.1378 92.104 17.1378C93.7052 17.1378 94.8002 15.6001 94.8002 13.9612C94.8002 12.2414 93.6851 10.7643 92.0636 10.7643Z" fill="#323232"/>
<path d="M36.1404 13.9814C36.1809 15.762 37.2755 17.1379 39.12 17.1379C40.3767 17.1379 41.2077 16.6927 41.978 15.9846L42.8495 16.8344C42.0793 17.6437 40.8834 18.3721 39.0997 18.3721C36.4242 18.3721 34.8026 16.4297 34.8026 13.8398C34.8026 11.5534 36.4039 9.50989 38.9984 9.50989C41.1875 9.50989 42.505 10.9667 42.9104 12.8686C43.032 13.4554 42.5658 13.9814 41.978 13.9814H36.1404ZM38.9173 10.7239C37.3565 10.7239 36.4242 11.6951 36.2012 12.9091H41.4915C41.2888 11.7962 40.4172 10.7239 38.9173 10.7239Z" fill="#323232"/>
<path d="M47.4912 20.0108C47.1061 21.063 46.4574 21.9128 45.1602 21.9128C44.6535 21.9128 44.2684 21.8521 43.8629 21.6902V20.4357C44.167 20.5976 44.4507 20.6785 44.8156 20.6785C45.8291 20.6785 46.1128 19.9704 46.4169 19.1408L46.802 18.1493L43.64 9.75244H45.0791L47.6128 16.3688L50.0451 9.75244H51.4437L47.4912 20.0108Z" fill="#323232"/>
<path d="M53.4706 13.9814C53.5111 15.762 54.6056 17.1379 56.4504 17.1379C57.7069 17.1379 58.5378 16.6927 59.3081 15.9846L60.18 16.8344C59.3894 17.6437 58.2137 18.3721 56.4297 18.3721C53.7543 18.3721 52.1328 16.4297 52.1328 13.8398C52.1328 11.5534 53.7341 9.50989 56.3288 9.50989C58.5176 9.50989 59.8352 10.9667 60.2405 12.8686C60.3622 13.4554 59.8957 13.9814 59.3081 13.9814H53.4706ZM56.2475 10.7239C54.6867 10.7239 53.7543 11.6951 53.5314 12.9091H58.8215C58.6393 11.7962 57.7472 10.7239 56.2475 10.7239Z" fill="#323232"/>
<path d="M65.0853 18.1898C63.5849 18.1898 62.6323 17.6031 62.6323 15.9439V10.9867H61.3961V9.7525H62.6323V5.84741H63.9701V9.7525H65.5512V10.9867H63.9701V15.9034C63.9701 16.5509 64.3149 16.9354 65.1256 16.9354H65.5714V18.1696C65.5714 18.1696 65.1256 18.1898 65.0853 18.1898Z" fill="#323232"/>
<path d="M68.2671 13.9814C68.3081 15.762 69.4025 17.1379 71.2471 17.1379C72.5036 17.1379 73.3345 16.6927 74.1048 15.9846L74.9767 16.8344C74.2063 17.6437 73.0104 18.3721 71.2269 18.3721C68.5508 18.3721 66.9294 16.4297 66.9294 13.8398C66.9294 11.5534 68.5307 9.50989 71.1254 9.50989C73.3143 9.50989 74.6319 10.9667 75.0372 12.8686C75.1589 13.4554 74.693 13.9814 74.1048 13.9814H68.2671ZM71.0441 10.7239C69.4832 10.7239 68.5508 11.6951 68.3283 12.9091H73.6182C73.4158 11.7962 72.5439 10.7239 71.0441 10.7239Z" fill="#323232"/>
<path d="M76.9423 18.1292V5.86768H78.2801V18.1292H76.9423Z" fill="#323232"/>
<path d="M80.8749 18.1292V5.86768H82.2127V18.1292H80.8749Z" fill="#323232"/>
<path d="M84.6852 7.62807V5.66541H85.0704C85.5974 5.66541 86.0229 6.0903 86.0229 6.61639V7.62807H84.6852ZM84.6852 18.1293V9.75255H86.0229V18.109H84.6852V18.1293Z" fill="#323232"/>
<path d="M99.3198 13.9814C99.3607 15.762 100.455 17.1379 102.3 17.1379C103.556 17.1379 104.387 16.6927 105.158 15.9846L106.029 16.8344C105.239 17.6437 104.063 18.3721 102.28 18.3721C99.6035 18.3721 97.9821 16.4297 97.9821 13.8398C97.9821 11.5534 99.5833 9.50989 102.178 9.50989C104.367 9.50989 105.685 10.9667 106.09 12.8686C106.212 13.4554 105.746 13.9814 105.158 13.9814H99.3198ZM102.097 10.7239C100.536 10.7239 99.6035 11.6951 99.3809 12.9091H104.671C104.468 11.7962 103.597 10.7239 102.097 10.7239Z" fill="#323232"/>
<path d="M113.711 18.1293V12.7877C113.711 11.5939 113.042 10.7441 111.745 10.7441C110.184 10.7441 109.333 12.12 109.333 13.2936V18.1293H107.995V10.7036C107.995 10.1776 108.421 9.75268 108.948 9.75268H109.333V10.9667C109.84 10.0562 110.833 9.50989 111.948 9.50989C113.833 9.50989 115.049 10.7239 115.049 12.5651V18.1293H113.711Z" fill="#323232"/>
<path d="M121.028 18.3721C118.414 18.3721 116.772 16.4095 116.772 13.9208C116.772 11.513 118.515 9.50989 120.927 9.50989C122.833 9.50989 123.907 10.4811 124.515 11.2702L123.501 12.0593C122.954 11.3511 122.164 10.7644 120.988 10.7644C119.265 10.7644 118.13 12.2414 118.13 13.8601C118.13 15.762 119.326 17.1379 120.968 17.1379C122.164 17.1379 122.995 16.5511 123.704 15.6001L124.677 16.3083C123.907 17.4414 122.609 18.3721 121.028 18.3721Z" fill="#323232"/>
<path d="M127.211 13.9814C127.251 15.762 128.346 17.1379 130.19 17.1379C131.447 17.1379 132.278 16.6927 133.048 15.9846L133.92 16.8344C133.149 17.6437 131.954 18.3721 130.17 18.3721C127.495 18.3721 125.873 16.4297 125.873 13.8398C125.873 11.5534 127.474 9.50989 130.069 9.50989C132.258 9.50989 133.575 10.9667 133.98 12.8686C134.102 13.4554 133.636 13.9814 133.048 13.9814H127.211ZM129.988 10.7239C128.427 10.7239 127.494 11.6951 127.271 12.9091H132.562C132.359 11.7962 131.488 10.7239 129.988 10.7239Z" fill="#323232"/>
<path d="M15.1479 0C6.3708 0 0 4.6537 0 13.0506C0 20.7595 7.23867 26 14.9507 26C23.0572 26 30 20.6584 30 12.8483C30 4.55253 22.8599 0 15.1479 0ZM17.5543 20.8607C12.8994 20.8607 8.56015 18.372 8.56015 14.6895C8.56015 10.6833 12.3866 8.47783 17.6726 8.47783C22.3274 8.47783 26.6272 10.6428 26.6272 14.6086C26.6075 18.3113 22.426 20.8607 17.5543 20.8607Z" fill="url(#paint0_radial_2_137)"/>
<defs>
<radialGradient id="paint0_radial_2_137" cx="0" cy="0" r="1" gradientUnits="userSpaceOnUse" gradientTransform="translate(15.0525 13.0123) scale(14.2691 11.4599)">
<stop offset="0.00180756" stop-color="#323232" stop-opacity="0"/>
<stop offset="0.9986" stop-color="#888888"/>
</radialGradient>
</defs>
</svg>
