<svg width="130" height="33" viewBox="0 0 130 33" fill="none" xmlns="http://www.w3.org/2000/svg">
<path d="M84.6157 11.4721H82.906V8.52879H80.3733V11.4721H78.6537V4.42371H80.3733V7.22174H82.906V4.42371H84.6157V11.4721Z" fill="#888888"/>
<path d="M87.5404 11.4721H85.8258V4.42371H87.5404V11.4721Z" fill="#888888"/>
<path d="M94.5751 10.6009C94.3105 10.8914 93.9235 11.1253 93.414 11.3028C92.9044 11.4803 92.346 11.5691 91.7386 11.5691C90.8045 11.5691 90.0582 11.2867 89.4998 10.7219C88.9412 10.1572 88.6424 9.37132 88.6032 8.36441L88.5984 7.75446C88.5984 7.0606 88.7224 6.45549 88.9706 5.93912C89.2188 5.41954 89.5732 5.02097 90.0337 4.74342C90.4975 4.46265 91.0331 4.32227 91.6405 4.32227C92.5289 4.32227 93.218 4.52398 93.7079 4.92738C94.2011 5.32756 94.4885 5.92622 94.5702 6.72335H92.9143C92.8556 6.32963 92.7281 6.04886 92.5322 5.88104C92.3363 5.71322 92.0586 5.62931 91.6993 5.62931C91.2682 5.62931 90.9351 5.81004 90.7 6.17148C90.4648 6.53294 90.3456 7.04931 90.3423 7.72057V8.14658C90.3423 8.85012 90.4632 9.37939 90.7049 9.73439C90.9498 10.0862 91.3335 10.2621 91.8561 10.2621C92.3036 10.2621 92.6367 10.1636 92.8555 9.96675V8.87271H91.6602V7.70605H94.5751V10.6009Z" fill="#888888"/>
<path d="M101.537 11.4721H99.8269V8.52879H97.2941V11.4721H95.5746V4.42371H97.2941V7.22174H99.8269V4.42371H101.537V11.4721Z" fill="#888888"/>
<path d="M82.3329 18.2377C82.3329 17.9893 82.243 17.7957 82.0634 17.6569C81.887 17.5181 81.5751 17.3745 81.1278 17.2261C80.6803 17.0776 80.3145 16.934 80.0303 16.7952C79.1061 16.3467 78.6439 15.7302 78.6439 14.946C78.6439 14.5555 78.7582 14.2117 78.9868 13.9149C79.2188 13.6147 79.5453 13.3824 79.9667 13.2178C80.3879 13.05 80.8615 12.9661 81.3873 12.9661C81.9002 12.9661 82.359 13.0564 82.764 13.2371C83.1722 13.4179 83.489 13.6761 83.7143 14.0117C83.9398 14.3442 84.0524 14.7249 84.0524 15.1541H82.3378C82.3378 14.8669 82.2479 14.6443 82.0683 14.4861C81.892 14.328 81.6519 14.2488 81.3482 14.2488C81.0412 14.2488 80.7978 14.3167 80.6182 14.4522C80.4418 14.5845 80.3536 14.7539 80.3536 14.9605C80.3536 15.1413 80.4517 15.3058 80.6476 15.4543C80.8435 15.5996 81.1881 15.7511 81.6813 15.9093C82.1745 16.0643 82.5794 16.2321 82.8962 16.4128C83.667 16.8517 84.0524 17.4568 84.0524 18.2281C84.0524 18.8445 83.8172 19.3286 83.3469 19.6804C82.8767 20.0322 82.2315 20.2081 81.4118 20.2081C80.8338 20.2081 80.3095 20.1064 79.8392 19.903C79.3723 19.6965 79.0195 19.4158 78.781 19.0607C78.546 18.7026 78.4284 18.291 78.4284 17.8263H80.1528C80.1528 18.2039 80.2507 18.483 80.4468 18.6638C80.646 18.8414 80.9677 18.93 81.4118 18.93C81.6959 18.93 81.9197 18.8704 82.0831 18.751C82.2496 18.6284 82.3329 18.4573 82.3329 18.2377Z" fill="#888888"/>
<path d="M87.359 17.4881L86.6535 18.2529V20.1118H84.934V13.0635H86.6535V16.1714L87.2512 15.2757L88.7896 13.0635H90.9157L88.5054 16.181L90.9157 20.1118H88.8777L87.359 17.4881Z" fill="#888888"/>
<path d="M93.184 20.1118H91.4693V13.0635H93.184V20.1118Z" fill="#888888"/>
<path d="M96.099 18.8047H99.0921V20.1118H94.3794V13.0635H96.099V18.8047Z" fill="#888888"/>
<path d="M101.536 18.8047H104.53V20.1118H99.8169V13.0635H101.536V18.8047Z" fill="#888888"/>
<path d="M84.253 23.0146H82.1122V28.751H80.3927V23.0146H78.2909V21.7026H84.253V23.0146Z" fill="#888888"/>
<path d="M87.6333 26.2629H86.7025V28.751H84.983V21.7026H87.7901C88.636 21.7026 89.2974 21.8883 89.7742 22.2594C90.2509 22.6305 90.4894 23.1549 90.4894 23.8326C90.4894 24.3232 90.3882 24.7299 90.1857 25.0526C89.9865 25.3753 89.6729 25.6367 89.245 25.8368L90.7344 28.6784V28.751H88.8923L87.6333 26.2629ZM86.7025 24.9509H87.7901C88.1167 24.9509 88.3617 24.867 88.5249 24.6993C88.6915 24.5282 88.7748 24.2909 88.7748 23.9876C88.7748 23.6842 88.6915 23.447 88.5249 23.276C88.3584 23.1017 88.1134 23.0146 87.7901 23.0146H86.7025V24.9509Z" fill="#888888"/>
<path d="M95.5795 27.4343H93.223L92.8115 28.751H90.9744L93.5905 21.7026H95.2071L97.8428 28.751H95.9959L95.5795 27.4343ZM93.6345 26.1224H95.1678L94.3987 23.6778L93.6345 26.1224Z" fill="#888888"/>
<path d="M100.199 28.751H98.4846V21.7026H100.199V28.751Z" fill="#888888"/>
<path d="M107.351 28.751H105.642L103.114 24.3652V28.751H101.394V21.7026H103.114L105.637 26.0885V21.7026H107.351V28.751Z" fill="#888888"/>
<path d="M110.271 28.751H108.557V21.7026H110.271V28.751Z" fill="#888888"/>
<path d="M117.424 28.751H115.714L113.186 24.3652V28.751H111.467V21.7026H113.186L115.709 26.0885V21.7026H117.424V28.751Z" fill="#888888"/>
<path d="M124.351 27.8798C124.087 28.1702 123.7 28.4042 123.19 28.5818C122.681 28.7592 122.122 28.848 121.515 28.848C120.581 28.848 119.834 28.5656 119.276 28.0008C118.717 27.4361 118.418 26.6502 118.379 25.6433L118.374 25.0333C118.374 24.3395 118.499 23.7343 118.747 23.2181C118.995 22.6984 119.349 22.2999 119.81 22.0223C120.274 21.7416 120.809 21.6012 121.417 21.6012C122.305 21.6012 122.994 21.8029 123.484 22.2062C123.977 22.6065 124.265 23.205 124.346 24.0023H122.69C122.632 23.6085 122.504 23.3277 122.308 23.1598C122.112 22.9922 121.835 22.9082 121.475 22.9082C121.044 22.9082 120.711 23.0889 120.476 23.4503C120.241 23.8118 120.122 24.3282 120.118 24.9995V25.4255C120.118 26.129 120.239 26.6583 120.481 27.0132C120.726 27.365 121.11 27.5409 121.632 27.5409C122.08 27.5409 122.413 27.4425 122.632 27.2456V26.1517H121.436V24.9849H124.351V27.8798Z" fill="#888888"/>
<path fill-rule="evenodd" clip-rule="evenodd" d="M122.918 10.4683C122.864 10.5214 122.834 10.5935 122.834 10.6686V18.695C122.834 18.8515 122.705 18.9783 122.547 18.9783H109.791C109.632 18.9783 109.504 18.8515 109.504 18.695V6.08989C109.504 5.93345 109.632 5.80663 109.791 5.80663H122.572C122.648 5.80663 122.72 5.77679 122.774 5.72366L123.348 5.15714C123.528 4.9787 123.4 4.67358 123.145 4.67358H108.644C108.486 4.67358 108.357 4.8004 108.357 4.95685V19.8281C108.357 19.9846 108.486 20.1113 108.644 20.1113H123.694C123.852 20.1113 123.98 19.9846 123.98 19.8281V10.1021C123.98 9.84971 123.671 9.72333 123.491 9.90177L122.918 10.4683Z" fill="#888888"/>
<path d="M111.439 10.8635L113.536 9.37542C113.725 9.24148 113.987 9.28003 114.129 9.46247L116.367 12.3543C116.526 12.5608 116.835 12.5784 117.017 12.3915L128.739 0.404796C128.887 0.253447 129.125 0.231968 129.298 0.354297L129.63 0.588777C129.831 0.730457 129.87 1.00961 129.716 1.19996L116.585 17.4193C116.41 17.6354 116.076 17.6311 115.907 17.4105L111.347 11.4653C111.201 11.2749 111.242 11.0029 111.439 10.8635Z" fill="#888888"/>
<path d="M71.5215 0H2.86659C1.28342 0 0 1.26821 0 2.83262V30.1674C0 31.7318 1.28342 33 2.86659 33H71.5215C73.1047 33 74.3881 31.7318 74.3881 30.1674V2.83262C74.3881 1.26821 73.1047 0 71.5215 0Z" fill="#888888"/>
<path d="M26.4375 28.6093H20.5023V18.3919H11.7099V28.6093H5.74071V4.14148H11.7099V13.8547H20.5023V4.14148H26.4375V28.6093Z" fill="white"/>
<path d="M42.3051 22.1056C42.3051 21.2429 41.9933 20.5707 41.3697 20.0889C40.7575 19.6072 39.6747 19.1087 38.1216 18.5933C36.5683 18.078 35.2984 17.5795 34.312 17.0977C31.1036 15.5404 29.4993 13.4006 29.4993 10.6782C29.4993 9.32265 29.896 8.1295 30.6896 7.09881C31.4947 6.05691 32.6285 5.25027 34.091 4.67892C35.5535 4.09635 37.1975 3.80505 39.0228 3.80505C40.8028 3.80505 42.3958 4.11875 43.8016 4.74613C45.2188 5.37352 46.3186 6.26977 47.1009 7.4349C47.8832 8.58884 48.2743 9.91082 48.2743 11.4008H42.3221C42.3221 10.4038 42.0102 9.63074 41.3868 9.08178C40.7745 8.53282 39.9411 8.25834 38.8868 8.25834C37.821 8.25834 36.9764 8.4936 36.3529 8.96414C35.7406 9.42348 35.4344 10.0116 35.4344 10.7287C35.4344 11.356 35.7747 11.9274 36.4549 12.4427C37.1352 12.9469 38.3313 13.4734 40.0432 14.0224C41.7553 14.5602 43.161 15.1427 44.2608 15.7702C46.9365 17.2937 48.2743 19.3944 48.2743 22.0719C48.2743 24.2118 47.4581 25.8922 45.8254 27.1134C44.1927 28.3345 41.9536 28.9451 39.1078 28.9451C37.1011 28.9451 35.2815 28.5921 33.6488 27.8864C32.0275 27.1693 30.8032 26.1948 29.9754 24.9623C29.1592 23.7188 28.751 22.2904 28.751 20.6771H34.7373C34.7373 21.9879 35.0774 22.9569 35.7576 23.5844C36.4492 24.2006 37.566 24.5086 39.1078 24.5086C40.0942 24.5086 40.8709 24.3013 41.4378 23.8869C42.016 23.4611 42.3051 22.8673 42.3051 22.1056Z" fill="white"/>
<path d="M70.0773 8.69559H62.6455V28.6093H56.6762V8.69559H49.3805V4.14148H70.0773V8.69559Z" fill="white"/>
</svg>
