<svg width="56" height="57" viewBox="0 0 56 57" fill="none" xmlns="http://www.w3.org/2000/svg">
<g clip-path="url(#clip0_2_193)">
<path d="M46.9344 10.6245C46.9069 10.6245 46.852 10.5832 46.8382 10.5145C46.8108 10.4184 46.852 10.3359 46.9619 10.3222C47.0443 10.3084 47.0855 10.3634 47.0993 10.4321C47.1268 10.5283 47.0993 10.597 46.9344 10.6245Z" fill="#888888"/>
<path d="M40.3808 27.0846C40.3533 27.0571 40.3121 27.0159 40.3121 26.9884C40.3258 26.906 40.3808 26.8785 40.4495 26.9197C40.477 26.9334 40.5045 27.0021 40.4907 27.0296C40.477 27.0571 40.422 27.0708 40.3808 27.0846Z" fill="#888888"/>
<path d="M20.9671 13.4272C20.9808 13.3997 20.9946 13.3447 21.0358 13.331C21.1182 13.3035 21.1595 13.3447 21.1732 13.4272C21.1732 13.4684 21.1457 13.5233 21.1182 13.5371C21.0495 13.5371 20.9808 13.5233 20.9671 13.4272Z" fill="#888888"/>
<path d="M8.12008 14.389C8.0926 14.4439 8.05137 14.4577 8.03763 14.4165C8.02389 14.389 8.0239 14.3478 8.0239 14.3065C8.0239 14.2928 8.05138 14.2791 8.06511 14.2791C8.12007 14.3065 8.13381 14.334 8.12008 14.389Z" fill="#888888"/>
<path d="M55.8794 25.023C55.8519 25.0779 55.8107 25.0917 55.7695 25.0642C55.742 25.0505 55.7283 25.0092 55.7008 24.9818C55.742 24.968 55.7832 24.9406 55.8107 24.9406C55.8382 24.9406 55.8519 24.9955 55.8794 25.023Z" fill="#888888"/>
<path d="M34.0334 12.1626C34.0059 12.1488 33.9785 12.1351 33.951 12.1076C33.9647 12.0939 33.9785 12.0664 33.9922 12.0664C34.0197 12.0801 34.0472 12.0939 34.0746 12.1076C34.0609 12.1214 34.0472 12.1351 34.0334 12.1626Z" fill="#888888"/>
<path d="M19.0572 13.6606C19.0846 13.1522 19.332 12.7675 19.5655 12.3828C20.9395 10.1707 22.3135 7.94484 23.6875 5.73274C24.7729 3.97406 25.8721 2.22911 26.9575 0.470422C27.3285 -0.120387 27.8231 -0.134126 28.2216 0.456683C29.5406 2.47642 30.8596 4.49617 32.1649 6.50217C33.8686 9.11272 35.5861 11.737 37.2898 14.3476C38.8836 16.7932 40.4774 19.2389 42.0712 21.6846C43.2666 23.5257 44.4757 25.3531 45.671 27.1805C46.0832 27.8125 46.097 28.4858 45.7123 29.1315C43.7475 32.4153 41.7552 35.6991 39.7767 38.9829C39.2271 39.8897 38.6775 40.7966 38.1279 41.7034C37.7844 42.2667 37.3035 42.2942 36.9463 41.7446C35.8746 40.1096 34.8166 38.4745 33.7587 36.8395C32.4259 34.7785 31.0932 32.7176 29.7604 30.6566C28.5238 28.7468 27.2873 26.8232 26.0369 24.9134C24.7042 22.8662 23.3714 20.819 22.0387 18.7718C21.1181 17.3703 20.1976 15.9688 19.3045 14.5537C19.1808 14.3063 19.1533 13.9628 19.0572 13.6606Z" fill="#888888"/>
<path d="M0.0961778 13.1115C-0.0686991 12.4657 0.357233 12.0123 0.645767 11.5452C2.77543 8.0965 4.93257 4.64783 7.07597 1.18542C7.26832 0.883142 7.4332 0.580868 7.6393 0.292333C7.92783 -0.0923799 8.3675 -0.0923801 8.6423 0.306073C9.35676 1.37777 10.0575 2.46321 10.772 3.54865C12.0085 5.44474 13.2589 7.35456 14.4954 9.25064C15.6358 11.0093 16.7762 12.768 17.9166 14.5267C19.2219 16.5464 20.5409 18.5524 21.8599 20.5722C22.753 21.9462 23.6461 23.3201 24.5392 24.7079C25.1025 25.5735 25.6796 26.4391 26.2429 27.3184C26.6139 27.8955 26.6414 28.5412 26.2979 29.1046C25.1849 30.9869 24.0445 32.8555 22.9041 34.7241C21.6676 36.7713 20.4447 38.8323 19.2082 40.8795C19.0021 41.2368 18.796 41.5802 18.5487 41.9237C18.2601 42.3359 17.8204 42.3359 17.5594 41.91C16.5701 40.3299 15.5809 38.7361 14.5916 37.1561C13.2588 34.9989 11.9261 32.8555 10.5933 30.6984C9.16441 28.3901 7.73547 26.0818 6.30654 23.7736C4.89135 21.4928 3.46241 19.1982 2.04722 16.9174C1.47015 15.9831 0.879344 15.0626 0.329754 14.1145C0.164877 13.826 0.109918 13.4687 0 13.139C0.0137397 13.1253 0.0549585 13.1115 0.0961778 13.1115Z" fill="#888888"/>
<path d="M55.3163 12.4516C55.3575 13.0287 55.1514 13.4959 54.8629 13.963C53.1179 16.8209 51.4005 19.7062 49.6693 22.5778C48.9823 23.7182 48.2815 24.8586 47.5808 25.999C47.2098 26.6036 46.7564 26.6036 46.3717 26.0128C44.4894 23.1412 42.5933 20.2696 40.7109 17.3979C40.0789 16.4362 39.4469 15.4744 38.8149 14.5126C38.4027 13.8668 38.4027 13.2073 38.7874 12.5753C40.7384 9.38768 42.7032 6.22754 44.668 3.03992C45.1626 2.22927 45.6573 1.41863 46.1519 0.621722C46.2068 0.539284 46.2618 0.443107 46.3168 0.360668C46.6603 -0.120223 47.1274 -0.120223 47.4572 0.360668C48.0205 1.15757 48.5563 1.95448 49.1197 2.75138C50.6448 4.96348 52.1699 7.16184 53.695 9.37394C54.1759 10.0747 54.6843 10.7342 55.1239 11.4624C55.2751 11.7372 55.2476 12.1219 55.3163 12.4516Z" fill="#888888"/>
<path d="M12.0088 49.3984C11.8302 50.1541 11.6791 50.8274 11.5142 51.5006C11.2394 52.7235 10.9646 53.9463 10.6761 55.1691C10.4975 55.9248 9.9616 56.337 9.19218 56.3233C8.79373 56.3233 8.38153 56.3095 8.01056 56.1996C7.79073 56.1309 7.52967 55.8836 7.46097 55.6638C7.24114 54.9356 7.07626 54.1799 6.92512 53.4379C6.65033 52.1189 6.40301 50.7999 6.14196 49.4809C6.0183 48.8489 5.8809 48.2031 5.77098 47.5711C5.71603 47.2276 5.85342 47.0902 6.19692 47.0764C6.65033 47.0764 7.11748 47.0902 7.57089 47.0764C7.84568 47.0627 7.96934 47.2138 7.99682 47.4611C8.18918 48.7664 8.36779 50.058 8.56015 51.3632C8.71129 52.3662 8.87617 53.3692 9.10974 54.386C9.19218 54.07 9.27462 53.7402 9.34332 53.4242C9.72803 51.6792 10.099 49.9206 10.4837 48.1756C10.6074 47.626 10.8272 47.4474 11.3768 47.4474C11.8165 47.4474 12.2699 47.4474 12.7096 47.4474C13.1217 47.4474 13.3553 47.6123 13.4515 48.0107C13.6576 48.8763 13.8362 49.7419 14.0286 50.6075C14.3034 51.8579 14.5919 53.1219 14.9491 54.386C15.0041 54.07 15.059 53.7539 15.1003 53.4379C15.2789 52.2563 15.4575 51.061 15.6224 49.8793C15.7323 49.1236 15.8422 48.368 15.9521 47.6123C16.0071 47.1726 16.117 47.0764 16.5704 47.0764C16.9689 47.0764 17.3673 47.0764 17.7658 47.0764C18.1368 47.0764 18.2879 47.2688 18.2192 47.6123C17.9032 49.1786 17.6009 50.7449 17.2849 52.3113C17.0925 53.273 16.9002 54.2348 16.7078 55.1966C16.5429 56.0347 16.1582 56.337 15.3064 56.337C14.9766 56.337 14.6331 56.3508 14.3171 56.2683C13.5477 56.0622 13.3553 55.4027 13.2042 54.7295C12.8195 53.0257 12.4348 51.322 12.05 49.6183C12.0913 49.5633 12.0638 49.5221 12.0088 49.3984Z" fill="#888888"/>
<path d="M31.821 52.489C31.821 53.5332 31.821 54.5637 31.821 55.6079C31.821 56.1987 31.7386 56.2949 31.1615 56.2949C30.8043 56.2949 30.447 56.2949 30.1035 56.2949C29.8013 56.2949 29.6501 56.1712 29.6501 55.8415C29.6501 51.9943 29.6501 48.1609 29.6501 44.3138C29.6501 44.0115 29.8013 43.8741 30.0898 43.8741C30.4882 43.8741 30.8867 43.8741 31.2851 43.8741C31.7248 43.8741 31.8347 43.9978 31.8347 44.4237C31.8347 46.416 31.8347 48.4083 31.8347 50.4005C31.8347 50.5242 31.8347 50.6478 31.8347 50.8814C31.9721 50.7303 32.0546 50.6478 32.1233 50.5517C32.9064 49.5074 33.6759 48.4632 34.459 47.419C34.6376 47.1854 34.8437 47.0618 35.1598 47.0755C35.6681 47.103 36.1902 47.0755 36.6986 47.0892C36.8085 47.0892 36.9734 47.1442 37.0146 47.2129C37.0558 47.2953 36.9871 47.4602 36.9184 47.5427C35.9429 48.7655 34.9537 49.9746 33.9507 51.1699C33.772 51.3898 33.772 51.5272 33.9369 51.7608C34.9537 53.121 35.9567 54.495 36.9597 55.8689C37.1245 56.0888 37.0421 56.2811 36.781 56.2949C36.1215 56.3086 35.4483 56.3223 34.7888 56.2811C34.6239 56.2674 34.4453 56.1025 34.3354 55.9514C33.6072 54.9346 32.9064 53.8904 32.192 52.8599C32.1095 52.7363 32.0134 52.6126 31.9172 52.4752C31.876 52.4615 31.8485 52.4752 31.821 52.489Z" fill="#888888"/>
<path d="M38.7322 52.4347C38.5673 53.4926 39.268 54.4407 40.271 54.4544C41.3152 54.4681 42.3457 54.3994 43.3899 54.3582C43.8708 54.3307 43.9395 54.372 43.9395 54.8391C43.9395 55.1276 43.9258 55.4162 43.9395 55.691C43.9533 55.9658 43.8159 56.0619 43.5686 56.1169C42.2358 56.4329 40.8756 56.378 39.5428 56.268C38.32 56.1719 37.3719 55.4437 36.8773 54.2758C36.6712 53.7812 36.5476 53.2178 36.5201 52.6957C36.4789 51.7752 36.4789 50.8408 36.6025 49.934C36.8223 48.2578 38.1414 47.1036 39.8451 46.98C40.8069 46.9113 41.7412 46.98 42.5793 47.5158C43.5411 48.1341 44.0357 49.0409 44.2006 50.1264C44.283 50.7172 44.2693 51.3355 44.283 51.94C44.2968 52.3247 44.1868 52.4347 43.8021 52.4347C42.2633 52.4347 40.7382 52.4347 39.1993 52.4347C39.0344 52.4347 38.8971 52.4347 38.7322 52.4347ZM42.0572 50.8546C42.0572 50.0989 41.8786 49.4394 41.2053 49.0684C40.6557 48.7661 40.0512 48.7661 39.5153 49.0959C38.8696 49.4806 38.6635 50.1126 38.7047 50.8683C39.8314 50.8546 40.9305 50.8546 42.0572 50.8546Z" fill="#888888"/>
<path d="M23.3162 55.7331C23.1101 55.8293 22.9727 55.898 22.8353 55.9804C21.9423 56.4613 20.953 56.4064 20.0187 56.269C19.1393 56.1316 18.576 55.527 18.3424 54.6202C18.1501 53.837 18.1501 53.0676 18.4661 52.3394C18.8646 51.4189 19.6889 51.0341 20.6232 50.9105C21.3652 50.8143 22.1209 50.8143 22.8766 50.7868C23.1239 50.7868 23.2338 50.7044 23.2063 50.4571C23.1926 50.2922 23.2063 50.1136 23.2063 49.9487C23.1788 49.193 22.8353 48.822 22.0934 48.8083C21.3927 48.7946 20.6782 48.8358 19.9637 48.8633C19.7027 48.877 19.4416 48.9045 19.1806 48.9182C18.892 48.9457 18.7546 48.822 18.7546 48.5335C18.7546 48.245 18.7546 47.9564 18.7546 47.6816C18.7546 47.4343 18.8508 47.2832 19.0844 47.242C19.5515 47.1595 20.0324 47.0496 20.4996 47.0359C21.3789 47.0221 22.272 46.9672 23.1239 47.1046C24.5665 47.3381 25.3909 48.4373 25.4047 49.9899C25.4184 51.9135 25.4047 53.837 25.4047 55.7469C25.4047 56.1591 25.281 56.2827 24.8688 56.2827C24.5391 56.2827 24.2093 56.2827 23.8796 56.2827C23.5498 56.2965 23.3025 56.2003 23.3162 55.7331ZM23.2063 52.2845C22.588 52.2845 22.011 52.2295 21.4476 52.2982C20.5683 52.4081 20.1011 53.6035 20.6095 54.3317C20.6782 54.4279 20.8156 54.5103 20.9393 54.5515C21.6812 54.7988 22.3819 54.579 23.0552 54.263C23.1239 54.2355 23.1926 54.1118 23.1926 54.0294C23.2201 53.4523 23.2063 52.889 23.2063 52.2845Z" fill="#888888"/>
<path d="M26.4214 50.044C26.4214 48.1617 26.4214 46.2656 26.4214 44.3833C26.4214 43.9573 26.5313 43.8474 26.9435 43.8474C27.3145 43.8474 27.6992 43.8474 28.0702 43.8474C28.5099 43.8474 28.6198 43.9573 28.6198 44.3833C28.6198 45.3588 28.6198 46.3206 28.6198 47.2961C28.6198 50.0578 28.6198 52.8332 28.6198 55.5949C28.6198 56.1994 28.5511 56.2681 27.9603 56.2681C27.6305 56.2681 27.3008 56.2681 26.971 56.2681C26.5313 56.2681 26.4214 56.1582 26.4214 55.7186C26.4214 53.8362 26.4214 51.9401 26.4214 50.044Z" fill="#888888"/>
<path d="M47.0581 47.5569C47.6077 47.3783 48.1435 47.186 48.6794 47.0073C48.6931 47.0073 48.7069 47.0073 48.7069 46.9936C49.545 46.8425 49.6687 46.9386 49.6687 47.7768C49.6687 47.9554 49.6549 48.1477 49.6687 48.3264C49.6824 48.6424 49.5587 48.7523 49.2427 48.8072C48.6382 48.9172 48.0474 49.082 47.4566 49.2194C47.1818 49.2881 47.1131 49.453 47.1131 49.7141C47.1268 51.6926 47.1131 53.6711 47.1131 55.6496C47.1131 56.1717 47.0169 56.2679 46.481 56.2679C46.1101 56.2679 45.7528 56.2817 45.3819 56.2679C45.0246 56.2542 44.9147 56.1305 44.9147 55.787C44.9147 53.0253 44.9147 50.2774 44.9147 47.5157C44.9147 47.1447 45.0109 47.0486 45.3819 47.0486C45.7116 47.0486 46.0414 47.0486 46.3711 47.0486C46.9482 47.0623 46.9619 47.076 47.0581 47.5569Z" fill="#888888"/>
</g>
<defs>
<clipPath id="clip0_2_193">
<rect width="56" height="57" fill="white"/>
</clipPath>
</defs>
</svg>
