<svg width="63" height="97" viewBox="0 0 63 97" fill="none" xmlns="http://www.w3.org/2000/svg">
<path fill-rule="evenodd" clip-rule="evenodd" d="M13.6239 2.00001C13.6239 1.36488 13.1091 0.850006 12.4739 0.850006C11.8388 0.850006 11.3239 1.36488 11.3239 2.00001V3.82403H9.38819C8.75306 3.82403 8.23819 4.33891 8.23819 4.97403C8.23819 5.60916 8.75306 6.12403 9.38819 6.12403H11.3239V8.08362L3.85019 28.6917L3.99558 28.7444L3.98544 28.7591L2.61406 30.7431L2.41349 31.0333L2.41012 31.386L2.07163 66.8087L0.329346 68.6291L0.0101624 68.9626V69.4242V94.9245V96.0745H1.16017H61.8435H62.9935V94.9245V69.4242V68.9357L62.6418 68.5965L61.2792 67.2823V33.0504V32.793L61.1695 32.5601L59.4553 28.9227L58.6569 27.2286L58.5712 27.3387L51.3372 6.4375V6.12403H53.2727C53.9078 6.12403 54.4227 5.60916 54.4227 4.97403C54.4227 4.33891 53.9078 3.82403 53.2727 3.82403H51.3372V2.00001C51.3372 1.36488 50.8224 0.850006 50.1872 0.850006C49.5521 0.850006 49.0372 1.36488 49.0372 2.00001V3.82403H47.1015C46.4663 3.82403 45.9515 4.33891 45.9515 4.97403C45.9515 5.60916 46.4663 6.12403 47.1015 6.12403H49.0372V6.46003L42.4713 28.5917L42.3258 28.8524L39.9259 33.1511L39.78 33.4125V33.7117V56.07L32.1371 47.1732V44.7802H34.0725C34.7076 44.7802 35.2225 44.2654 35.2225 43.6302C35.2225 42.9951 34.7076 42.4802 34.0725 42.4802H32.1371V40.6562C32.1371 40.0211 31.6222 39.5062 30.9871 39.5062C30.3519 39.5062 29.8371 40.0211 29.8371 40.6562V42.4802H27.9013C27.2662 42.4802 26.7513 42.9951 26.7513 43.6302C26.7513 44.2654 27.2662 44.7802 27.9013 44.7802H29.8371V47.1857L22.8808 55.5723V51.3685H22.5379V32.0584V31.778L22.4089 31.5291L21.3041 29.3979L21.4387 29.3485L13.6239 8.08164V6.12403H15.5594C16.1945 6.12403 16.7094 5.60916 16.7094 4.97403C16.7094 4.33891 16.1945 3.82403 15.5594 3.82403H13.6239V2.00001ZM50.2708 10.3885L56.887 29.5046L55.4501 31.3524L55.208 31.6639V32.0584V34.8764H46.1941V33.0504V32.793L46.0844 32.5601L44.6169 29.4463L50.2708 10.3885ZM18.854 28.9829L12.4809 11.6395L6.15819 29.0738L7.51585 30.6452L7.79566 30.969V31.397V34.8764H16.4666V32.0584V31.6145L16.7649 31.2857L18.854 28.9829ZM20.5808 62.3053H20.2843L20.2379 62.3612V62.3053H4.41477L4.36718 67.2859L4.36282 67.7411L4.04804 68.07L2.31017 69.8859V80.5092H20.5808V62.3053ZM2.31017 93.7745V82.8092H20.5808V93.7745H18.0813V91.8257C18.0813 88.5397 15.4175 85.8759 12.1315 85.8759C8.8455 85.8759 6.18168 88.5397 6.18168 91.8257V93.7745H2.31017ZM15.7813 93.7745V91.8257C15.7813 89.81 14.1472 88.1759 12.1315 88.1759C10.1157 88.1759 8.48168 89.81 8.48168 91.8257V93.7745H15.7813ZM22.8808 93.7745V82.8092H39.7803V93.7745H37.2803V93.61C37.2803 90.552 35.7304 87.7025 33.1634 86.0407C32.161 85.3918 30.8755 85.3777 29.8588 85.9889C27.1262 87.6315 25.4194 90.5845 25.3813 93.7745H22.8808ZM27.6815 93.7745H34.9803V93.61C34.9803 91.3321 33.8258 89.2094 31.9135 87.9715C31.655 87.8041 31.3145 87.7974 31.0438 87.9602C28.9971 89.1904 27.7195 91.3984 27.6815 93.7745ZM42.0803 93.7745V82.8092H60.6935V93.7745H56.4793V91.8257C56.4793 88.5397 53.8155 85.8759 50.5295 85.8759C47.2435 85.8759 44.5797 88.5397 44.5797 91.8257V93.7745H42.0803ZM54.1793 91.8257V93.7745H46.8797V91.8257C46.8797 89.81 48.5138 88.1759 50.5295 88.1759C52.5452 88.1759 54.1793 89.81 54.1793 91.8257ZM42.0803 80.5092H60.6935V69.9128L59.3309 68.5986L58.9792 68.2595V67.7709V62.3053H42.0803V80.5092ZM22.8808 80.5092H39.7803V62.3053H22.8808V80.5092ZM20.2379 59.1734V60.0053H4.43675L4.70665 31.7607L5.03264 31.2891L5.49566 31.825V36.0264V37.1764H6.64566H17.6166H18.7666V36.0264V32.5023L19.7569 31.4108L20.2379 32.3387V59.1734ZM39.7803 60.0053H22.8808V59.1749L31.003 49.3827L39.7803 59.5999V60.0053ZM58.9792 60.0053H42.0803V51.3685H42.08V34.011L43.2434 31.9271L43.8941 33.3078V36.0264V37.1764H45.0441H56.358H57.508V36.0264V32.4529L58.1732 31.5974L58.9792 33.3078V60.0053ZM9.85287 43.2966C9.85287 42.6615 9.338 42.1466 8.70287 42.1466C8.06775 42.1466 7.55287 42.6615 7.55287 43.2966V55.8622C7.55287 56.4973 8.06775 57.0122 8.70287 57.0122C9.338 57.0122 9.85287 56.4973 9.85287 55.8622V43.2966ZM16.0239 43.2966C16.0239 42.6615 15.5091 42.1466 14.8739 42.1466C14.2388 42.1466 13.7239 42.6615 13.7239 43.2966V55.8622C13.7239 56.4973 14.2388 57.0122 14.8739 57.0122C15.5091 57.0122 16.0239 56.4973 16.0239 55.8622V43.2966ZM47.1013 42.1466C47.7365 42.1466 48.2513 42.6615 48.2513 43.2966V55.8622C48.2513 56.4973 47.7365 57.0122 47.1013 57.0122C46.4662 57.0122 45.9513 56.4973 45.9513 55.8622V43.2966C45.9513 42.6615 46.4662 42.1466 47.1013 42.1466ZM54.4224 43.2966C54.4224 42.6615 53.9075 42.1466 53.2724 42.1466C52.6373 42.1466 52.1224 42.6615 52.1224 43.2966V55.8622C52.1224 56.4973 52.6373 57.0122 53.2724 57.0122C53.9075 57.0122 54.4224 56.4973 54.4224 55.8622V43.2966ZM51.609 64.2382L50.8246 63.5839L50.0823 64.2856L48.2594 66.009C45.9106 68.2295 44.5797 71.3192 44.5797 74.5514V76.3641V77.5141H45.7297H56.015H57.165V76.3641V74.3753C57.165 70.8885 55.6171 67.5816 52.9396 65.3481L51.609 64.2382ZM49.8394 67.6804L50.9201 66.6587L51.4663 67.1143C53.6199 68.9108 54.865 71.5707 54.865 74.3753V75.2141H46.8797V74.5514C46.8797 71.9516 47.9502 69.4664 49.8394 67.6804ZM11.7407 63.5839L12.5251 64.2382L13.8557 65.3481C16.5333 67.5816 18.0811 70.8885 18.0811 74.3753V76.3641V77.5141H16.9311H6.64585H5.49585V76.3641V74.5514C5.49585 71.3192 6.82673 68.2295 9.17553 66.009L10.9985 64.2856L11.7407 63.5839ZM11.8363 66.6587L10.7556 67.6804C8.86634 69.4664 7.79585 71.9516 7.79585 74.5514V75.2141H15.7811V74.3753C15.7811 71.5707 14.5361 68.9108 12.3824 67.1143L11.8363 66.6587ZM29.7018 65.7611C30.1125 65.6648 30.5429 65.6136 30.9872 65.6136C31.5384 65.6136 32.068 65.6924 32.5654 65.8384L31.579 67.3334C31.3866 67.298 31.1889 67.2796 30.9877 67.2796C30.8948 67.2796 30.8026 67.2835 30.7113 67.2912L29.7018 65.7611ZM34.085 69.5942H36.2147C35.9659 68.5611 35.3899 67.6399 34.5911 66.9445L33.5484 68.5249C33.7918 68.8386 33.9766 69.1996 34.085 69.5942ZM36.2157 71.8942H33.8167C33.7071 72.0935 33.5762 72.2794 33.4272 72.4491L34.7297 74.4233C35.4576 73.7431 35.9821 72.8683 36.2157 71.8942ZM30.9877 73.5477C31.1204 73.5477 31.2517 73.5396 31.3809 73.524L32.7487 75.5971C32.1989 75.7796 31.6067 75.8792 30.9872 75.8792C30.474 75.8792 29.9795 75.8109 29.5123 75.6836L30.9221 73.547C30.9439 73.5474 30.9658 73.5477 30.9877 73.5477ZM28.7516 72.6603L27.4618 74.6152C26.6211 73.9116 26.0149 72.9626 25.7587 71.8942H28.1586C28.3156 72.1798 28.5165 72.4378 28.7516 72.6603ZM27.8903 69.5942H25.7598C26.0311 68.4674 26.6917 67.4737 27.606 66.761L28.6204 68.2986C28.2808 68.6599 28.0259 69.1009 27.8903 69.5942ZM30.9872 63.3136C26.794 63.3136 23.3232 66.6026 23.3232 70.7464C23.3232 74.8902 26.794 78.1792 30.9872 78.1792C35.1804 78.1792 38.6513 74.8902 38.6513 70.7464C38.6513 66.6026 35.1804 63.3136 30.9872 63.3136ZM30.9877 69.5796C30.4472 69.5796 30.0806 69.9918 30.0806 70.4136C30.0806 70.8354 30.4472 71.2477 30.9877 71.2477C31.5282 71.2477 31.8947 70.8354 31.8947 70.4136C31.8947 69.9918 31.5282 69.5796 30.9877 69.5796Z" fill="#0A8BFE"/>
</svg>
